<svg xmlns="http://www.w3.org/2000/svg" viewBox="0 0 161.18 21.93"><defs><style>.cls-1{fill:#fff;}</style></defs><title>Ресурс 3</title><g id="Слой_2" data-name="Слой 2"><g id="Слой_1-2" data-name="Слой 1"><path class="cls-1" d="M4.36,8.62H0v-2H4.36V1.88H6.55v4.7h9.56v2H6.55V19.9h9.71v2H6.64A2.26,2.26,0,0,1,5,21.28a2.2,2.2,0,0,1-.67-1.63Z"/><path class="cls-1" d="M21.46,8.62H18.14v-2h3.23A2.21,2.21,0,0,1,23,7.24a2.19,2.19,0,0,1,.68,1.63V21.93h-2.2ZM21.15.91h2.19V3.45H21.15Z"/><path class="cls-1" d="M27.1,8.87a2.19,2.19,0,0,1,.68-1.63,2.21,2.21,0,0,1,1.61-.66h14.2a2.23,2.23,0,0,1,1.61.66,2.18,2.18,0,0,1,.67,1.63v5.45a2.24,2.24,0,0,1-.65,1.61,2.2,2.2,0,0,1-1.63.68H29.3v5.32H27.1Zm16.58,5.7v-6H29.3v6Z"/><path class="cls-1" d="M48.38,8.87a2.18,2.18,0,0,1,.67-1.63,2.23,2.23,0,0,1,1.62-.66H64.86a2.27,2.27,0,0,1,2.29,2.29v5.45a2.21,2.21,0,0,1-.66,1.61,2.19,2.19,0,0,1-1.63.68H50.57v5.32H48.38ZM65,14.57v-6H50.57v6Z"/><path class="cls-1" d="M70,8.87a2.18,2.18,0,0,1,.67-1.63,2.23,2.23,0,0,1,1.62-.66H82.41v2H72.16V21.93H70Z"/><path class="cls-1" d="M82.72,14.82A2.29,2.29,0,0,1,85,12.53H99V8.62H85v-2H98.89a2.21,2.21,0,0,1,1.61.66,2.19,2.19,0,0,1,.68,1.63V19.65a2.2,2.2,0,0,1-.68,1.63,2.24,2.24,0,0,1-1.61.65H85a2.23,2.23,0,0,1-1.61-.65,2.2,2.2,0,0,1-.68-1.63ZM99,19.9V14.57H84.92V19.9Z"/><path class="cls-1" d="M104.31,8.87A2.18,2.18,0,0,1,105,7.24a2.23,2.23,0,0,1,1.62-.66h12.53v2H106.5V19.9h15V0h2.2V19.65a2.2,2.2,0,0,1-.68,1.63,2.24,2.24,0,0,1-1.61.65H106.6a2.27,2.27,0,0,1-1.62-.65,2.2,2.2,0,0,1-.67-1.63Z"/><path class="cls-1" d="M126.84,14.82a2.18,2.18,0,0,1,.67-1.63,2.23,2.23,0,0,1,1.62-.66h14V8.62h-14v-2H143a2.23,2.23,0,0,1,1.61.66,2.19,2.19,0,0,1,.68,1.63V19.65a2.2,2.2,0,0,1-.68,1.63,2.26,2.26,0,0,1-1.61.65H129.13a2.27,2.27,0,0,1-1.62-.65,2.2,2.2,0,0,1-.67-1.63ZM143.1,19.9V14.57H129V19.9Z"/><path class="cls-1" d="M148.74,8.87A2.27,2.27,0,0,1,151,6.58h10.15v2H150.93V21.93h-2.19Z"/></g></g></svg>